<svg width="83" height="25" viewBox="0 0 83 25" fill="none" xmlns="http://www.w3.org/2000/svg">
<path d="M0.71875 24V1.25H8.89062C11.8177 1.25 14.0417 1.78646 15.5625 2.85938C17.0938 3.93229 17.8594 5.48958 17.8594 7.53125C17.8594 8.70833 17.5885 9.71354 17.0469 10.5469C16.5052 11.3802 15.7083 11.9948 14.6562 12.3906C15.8438 12.7031 16.7552 13.2865 17.3906 14.1406C18.026 14.9948 18.3438 16.0365 18.3438 17.2656C18.3438 19.4948 17.6354 21.1719 16.2188 22.2969C14.8125 23.4115 12.724 23.9792 9.95312 24H0.71875ZM6.20312 14.3281V19.7812H9.79688C10.7865 19.7812 11.5469 19.5573 12.0781 19.1094C12.6094 18.651 12.875 18.0104 12.875 17.1875C12.875 15.2917 11.9323 14.3385 10.0469 14.3281H6.20312ZM6.20312 10.7344H9.0625C10.2604 10.724 11.1146 10.5052 11.625 10.0781C12.1354 9.65104 12.3906 9.02083 12.3906 8.1875C12.3906 7.22917 12.1146 6.54167 11.5625 6.125C11.0104 5.69792 10.1198 5.48438 8.89062 5.48438H6.20312V10.7344Z" fill="black"/>
<path d="M31.3594 11.8594L29.625 11.7344C27.9688 11.7344 26.9062 12.2552 26.4375 13.2969V24H21.1719V7.09375H26.1094L26.2812 9.26562C27.1667 7.60938 28.401 6.78125 29.9844 6.78125C30.5469 6.78125 31.0365 6.84375 31.4531 6.96875L31.3594 11.8594Z" fill="black"/>
<path d="M42.3125 24C42.125 23.6562 41.9583 23.151 41.8125 22.4844C40.8438 23.7031 39.4896 24.3125 37.75 24.3125C36.1562 24.3125 34.8021 23.8333 33.6875 22.875C32.5729 21.9062 32.0156 20.6927 32.0156 19.2344C32.0156 17.401 32.6927 16.0156 34.0469 15.0781C35.401 14.1406 37.3698 13.6719 39.9531 13.6719H41.5781V12.7812C41.5781 11.2292 40.9062 10.4531 39.5625 10.4531C38.3125 10.4531 37.6875 11.0677 37.6875 12.2969H32.4219C32.4219 10.6615 33.1146 9.33333 34.5 8.3125C35.8958 7.29167 37.6719 6.78125 39.8281 6.78125C41.9844 6.78125 43.6875 7.30729 44.9375 8.35938C46.1875 9.41146 46.8281 10.8542 46.8594 12.6875V20.1719C46.8802 21.724 47.1198 22.9115 47.5781 23.7344V24H42.3125ZM39.0156 20.5625C39.6719 20.5625 40.2135 20.4219 40.6406 20.1406C41.0781 19.8594 41.3906 19.5417 41.5781 19.1875V16.4844H40.0469C38.2135 16.4844 37.2969 17.3073 37.2969 18.9531C37.2969 19.4323 37.4583 19.8229 37.7812 20.125C38.1042 20.4167 38.5156 20.5625 39.0156 20.5625Z" fill="black"/>
<path d="M54.625 7.09375L54.7969 9.07812C55.9635 7.54688 57.5729 6.78125 59.625 6.78125C61.3854 6.78125 62.6979 7.30729 63.5625 8.35938C64.4375 9.41146 64.8906 10.9948 64.9219 13.1094V24H59.6406V13.3281C59.6406 12.474 59.4688 11.849 59.125 11.4531C58.7812 11.0469 58.1562 10.8438 57.25 10.8438C56.2188 10.8438 55.4531 11.25 54.9531 12.0625V24H49.6875V7.09375H54.625Z" fill="black"/>
<path d="M67.1875 15.4219C67.1875 12.7448 67.7656 10.6354 68.9219 9.09375C70.0781 7.55208 71.6927 6.78125 73.7656 6.78125C75.276 6.78125 76.5469 7.375 77.5781 8.5625V0H82.8594V24H78.125L77.8594 22.1875C76.776 23.6042 75.401 24.3125 73.7344 24.3125C71.724 24.3125 70.1302 23.5417 68.9531 22C67.776 20.4583 67.1875 18.2656 67.1875 15.4219ZM72.4531 15.75C72.4531 18.75 73.3281 20.25 75.0781 20.25C76.2448 20.25 77.0781 19.7604 77.5781 18.7812V12.3438C77.099 11.3438 76.276 10.8438 75.1094 10.8438C73.4844 10.8438 72.6042 12.1562 72.4688 14.7812L72.4531 15.75Z" fill="black"/>
</svg>
