<svg width="32" height="32" viewBox="0 0 32 32" fill="none" xmlns="http://www.w3.org/2000/svg">
<mask id="mask0_821_56" style="mask-type:alpha" maskUnits="userSpaceOnUse" x="0" y="0" width="32" height="32">
<rect width="32" height="32" fill="#C4C4C4"/>
</mask>
<g mask="url(#mask0_821_56)">
<path d="M2.66667 24H5.33333C6.80889 24 8 22.8089 8 21.3333V18.6667C8 17.1911 6.80889 16 5.33333 16H2.66667C1.19111 16 0 17.1911 0 18.6667V21.3333C0 22.8089 1.19111 24 2.66667 24Z" fill="#D8D8EB"/>
<path d="M10.6667 16H13.3333C14.8089 16 16 14.8089 16 13.3333V10.6667C16 9.19111 14.8089 8 13.3333 8H10.6667C9.19111 8 8 9.19111 8 10.6667V13.3333C8 14.8089 9.19111 16 10.6667 16Z" fill="#D8D8EB"/>
<path d="M21.3333 24H18.6667C17.1911 24 16 22.8089 16 21.3333V18.6667C16 17.1911 17.1911 16 18.6667 16H21.3333C22.8089 16 24 17.1911 24 18.6667V21.3333C24 22.8089 22.8089 24 21.3333 24Z" fill="#D8D8EB"/>
<path d="M13.3333 24H10.6667C9.19111 24 8 25.1911 8 26.6667V29.3333C8 30.8089 9.19111 32 10.6667 32H13.3333C14.8089 32 16 30.8089 16 29.3333V26.6667C16 25.1911 14.8089 24 13.3333 24Z" fill="#D8D8EB"/>
<path d="M18.6667 8H21.3333C22.8089 8 24 6.80889 24 5.33333V2.66667C24 1.19111 22.8089 0 21.3333 0H18.6667C17.1911 0 16 1.19111 16 2.66667V5.33333C16 6.80889 17.1911 8 18.6667 8Z" fill="#D8D8EB"/>
<path d="M29.3333 16H26.6667C25.1911 16 24 14.8089 24 13.3333V10.6667C24 9.19111 25.1911 8 26.6667 8H29.3333C30.8089 8 32 9.19111 32 10.6667V13.3333C32 14.8089 30.8089 16 29.3333 16Z" fill="#D8D8EB"/>
<path d="M5.33398 16C6.80954 16 8.00065 14.8089 8.00065 13.3334C8.00065 14.8089 9.19176 16 10.6673 16C9.19176 16 8.00065 17.1912 8.00065 18.6667C8.00065 17.1912 6.80954 16 5.33398 16Z" fill="#D8D8EB"/>
<path d="M13.334 8.00004C14.8095 8.00004 16.0007 6.80893 16.0007 5.33337C16.0007 6.80893 17.1918 8.00004 18.6673 8.00004C17.1918 8.00004 16.0007 9.19115 16.0007 10.6667C16.0007 9.19115 14.8095 8.00004 13.334 8.00004Z" fill="#D8D8EB"/>
<path d="M13.334 24C14.8095 24 16.0007 22.8089 16.0007 21.3334C16.0007 22.8089 17.1918 24 18.6673 24C17.1918 24 16.0007 25.1912 16.0007 26.6667C16.0007 25.1912 14.8095 24 13.334 24Z" fill="#D8D8EB"/>
<path d="M21.334 16C22.8095 16 24.0007 14.8089 24.0007 13.3334C24.0007 14.8089 25.1918 16 26.6673 16C25.1918 16 24.0007 17.1912 24.0007 18.6667C24.0007 17.1912 22.8095 16 21.334 16Z" fill="#D8D8EB"/>
<path d="M13.334 16C14.8095 16 16.0007 14.8089 16.0007 13.3334C16.0007 14.8089 17.1918 16 18.6673 16C17.1918 16 16.0007 17.1912 16.0007 18.6667C16.0007 17.1912 14.8095 16 13.334 16Z" fill="#D8D8EB"/>
<path d="M21.334 8.00004C22.8095 8.00004 24.0007 6.80893 24.0007 5.33337C24.0007 6.80893 25.1918 8.00004 26.6673 8.00004C25.1918 8.00004 24.0007 9.19115 24.0007 10.6667C24.0007 9.19115 22.8095 8.00004 21.334 8.00004Z" fill="#D8D8EB"/>
<path d="M5.33398 24C6.80954 24 8.00065 22.8089 8.00065 21.3334C8.00065 22.8089 9.19176 24 10.6673 24C9.19176 24 8.00065 25.1912 8.00065 26.6667C8.00065 25.1912 6.80954 24 5.33398 24Z" fill="#D8D8EB"/>
<rect width="32" height="32" rx="8" fill="#4543E8"/>
<rect x="16" y="16" width="12" height="12" rx="6" fill="#D8D8EB"/>
</g>
</svg>
