<svg width="256" height="256" viewBox="0 0 256 256" fill="none" xmlns="http://www.w3.org/2000/svg">
<mask id="mask0_821_57" style="mask-type:alpha" maskUnits="userSpaceOnUse" x="0" y="0" width="256" height="256">
<rect width="256" height="256" fill="#C4C4C4"/>
</mask>
<g mask="url(#mask0_821_57)">
<path d="M21.25 191.25H42.5C54.2583 191.25 63.75 181.758 63.75 170V148.75C63.75 136.992 54.2583 127.5 42.5 127.5H21.25C9.49167 127.5 0 136.992 0 148.75V170C0 181.758 9.49167 191.25 21.25 191.25Z" fill="#D8D8EB"/>
<path d="M85 127.5H106.25C118.008 127.5 127.5 118.008 127.5 106.25V85C127.5 73.2417 118.008 63.75 106.25 63.75H85C73.2417 63.75 63.75 73.2417 63.75 85V106.25C63.75 118.008 73.2417 127.5 85 127.5Z" fill="#D8D8EB"/>
<path d="M170 191.25H148.75C136.992 191.25 127.5 181.758 127.5 170V148.75C127.5 136.992 136.992 127.5 148.75 127.5H170C181.758 127.5 191.25 136.992 191.25 148.75V170C191.25 181.758 181.758 191.25 170 191.25Z" fill="#D8D8EB"/>
<path d="M106.25 191.25H85C73.2417 191.25 63.75 200.742 63.75 212.5V233.75C63.75 245.508 73.2417 255 85 255H106.25C118.008 255 127.5 245.508 127.5 233.75V212.5C127.5 200.742 118.008 191.25 106.25 191.25Z" fill="#D8D8EB"/>
<path d="M148.75 63.75H170C181.758 63.75 191.25 54.2583 191.25 42.5V21.25C191.25 9.49167 181.758 0 170 0H148.75C136.992 0 127.5 9.49167 127.5 21.25V42.5C127.5 54.2583 136.992 63.75 148.75 63.75Z" fill="#D8D8EB"/>
<path d="M233.75 127.5H212.5C200.742 127.5 191.25 118.008 191.25 106.25V85C191.25 73.2417 200.742 63.75 212.5 63.75H233.75C245.508 63.75 255 73.2417 255 85V106.25C255 118.008 245.508 127.5 233.75 127.5Z" fill="#D8D8EB"/>
<path d="M42.5039 127.5C54.2622 127.5 63.7539 118.009 63.7539 106.25C63.7539 118.009 73.2456 127.5 85.0039 127.5C73.2456 127.5 63.7539 136.992 63.7539 148.75C63.7539 136.992 54.2622 127.5 42.5039 127.5Z" fill="#D8D8EB"/>
<path d="M106.254 63.7502C118.012 63.7502 127.504 54.2586 127.504 42.5002C127.504 54.2586 136.996 63.7502 148.754 63.7502C136.996 63.7502 127.504 73.2419 127.504 85.0002C127.504 73.2419 118.012 63.7502 106.254 63.7502Z" fill="#D8D8EB"/>
<path d="M106.254 191.25C118.012 191.25 127.504 181.759 127.504 170C127.504 181.759 136.996 191.25 148.754 191.25C136.996 191.25 127.504 200.742 127.504 212.5C127.504 200.742 118.012 191.25 106.254 191.25Z" fill="#D8D8EB"/>
<path d="M170.004 127.5C181.762 127.5 191.254 118.009 191.254 106.25C191.254 118.009 200.746 127.5 212.504 127.5C200.746 127.5 191.254 136.992 191.254 148.75C191.254 136.992 181.762 127.5 170.004 127.5Z" fill="#D8D8EB"/>
<path d="M106.254 127.5C118.012 127.5 127.504 118.009 127.504 106.25C127.504 118.009 136.996 127.5 148.754 127.5C136.996 127.5 127.504 136.992 127.504 148.75C127.504 136.992 118.012 127.5 106.254 127.5Z" fill="#D8D8EB"/>
<path d="M170.004 63.7502C181.762 63.7502 191.254 54.2586 191.254 42.5002C191.254 54.2586 200.746 63.7502 212.504 63.7502C200.746 63.7502 191.254 73.2419 191.254 85.0002C191.254 73.2419 181.762 63.7502 170.004 63.7502Z" fill="#D8D8EB"/>
<path d="M42.5039 191.25C54.2622 191.25 63.7539 181.759 63.7539 170C63.7539 181.759 73.2456 191.25 85.0039 191.25C73.2456 191.25 63.7539 200.742 63.7539 212.5C63.7539 200.742 54.2622 191.25 42.5039 191.25Z" fill="#D8D8EB"/>
<rect width="255" height="255" rx="50" fill="#4543E8"/>
<rect x="127.5" y="127.5" width="95.625" height="95.625" rx="47.8125" fill="#D8D8EB"/>
</g>
</svg>
